<svg version="1.1" id="Layer_1" xmlns="http://www.w3.org/2000/svg" xmlns:xlink="http://www.w3.org/1999/xlink" x="0px" y="0px"
	 viewBox="0 0 348.7 30" style="enable-background:new 0 0 348.7 30;" xml:space="preserve">
<style type="text/css">
	.st0{fill:#AF976D;}
	.st1{fill:#495062;}
</style>
<g>
	<path class="st0" d="M228.9,20.4c1.2,0.6,1.8,0.5,2.1,0.1c0.4-0.5,0.4-1.6-0.8-2.6c-1.2-1-3-2.9-3-2.9s3.2-3.6,3.4-4.4
		c0.3-0.8,0.6-1.2,0.1-1.6c-0.5-0.4-2.4,0-3.3,1.1c-0.3,0.3-4.1,3.4-4.1,5.1C223.5,17.1,227.8,19.8,228.9,20.4z"/>
	<ellipse transform="matrix(0.6642 -0.7475 0.7475 0.6642 66.3063 177.2873)" class="st1" cx="230.5" cy="14.8" rx="0.7" ry="0.7"/>
	<path class="st0" d="M217.8,20.5c1.2,0.6,1.8,0.5,2.1,0.1c0.4-0.5,0.4-1.6-0.8-2.6c-1.2-1-3-2.9-3-2.9s3.2-3.6,3.4-4.4
		c0.3-0.8,0.6-1.2,0.1-1.6c-0.5-0.4-2.4,0-3.3,1.1c-0.3,0.3-4.1,3.4-4.1,5.1C212.4,17.2,216.7,19.9,217.8,20.5z"/>
	<ellipse transform="matrix(0.6642 -0.7475 0.7475 0.6642 62.5179 169.0188)" class="st1" cx="219.4" cy="14.9" rx="0.7" ry="0.7"/>
	<path class="st0" d="M206.7,20.5c1.2,0.6,1.8,0.5,2.1,0.1c0.4-0.5,0.4-1.6-0.8-2.6c-1.2-1-3-2.9-3-2.9s3.2-3.6,3.4-4.4
		c0.3-0.8,0.6-1.2,0.1-1.6c-0.5-0.4-2.4,0-3.3,1.1c-0.3,0.3-4.1,3.4-4.1,5.1C201.3,17.2,205.6,19.9,206.7,20.5z"/>
	<ellipse transform="matrix(0.6642 -0.7475 0.7475 0.6642 58.7294 160.7503)" class="st1" cx="208.3" cy="15" rx="0.7" ry="0.7"/>
	<path class="st0" d="M195.6,20.6c1.2,0.6,1.8,0.5,2.1,0.1c0.4-0.5,0.4-1.6-0.8-2.6c-1.2-1-3-2.9-3-2.9s3.2-3.6,3.4-4.4
		c0.3-0.8,0.6-1.2,0.1-1.6c-0.5-0.4-2.4,0-3.3,1.1c-0.3,0.3-4.1,3.4-4.1,5.1C190.2,17.3,194.5,20,195.6,20.6z"/>
	<ellipse transform="matrix(0.6642 -0.7475 0.7475 0.6642 54.9409 152.4818)" class="st1" cx="197.2" cy="15.1" rx="0.7" ry="0.7"/>
	<path class="st0" d="M184.5,20.7c1.2,0.6,1.8,0.5,2.1,0.1c0.4-0.5,0.4-1.6-0.8-2.6c-1.2-1-3-2.9-3-2.9s3.2-3.6,3.4-4.4
		c0.3-0.8,0.6-1.2,0.1-1.6c-0.5-0.4-2.4,0-3.3,1.1c-0.3,0.3-4.1,3.4-4.1,5.1C179.1,17.4,183.4,20.1,184.5,20.7z"/>
	<ellipse transform="matrix(0.6642 -0.7475 0.7475 0.6642 51.1525 144.2133)" class="st1" cx="186.1" cy="15.2" rx="0.7" ry="0.7"/>
	<path class="st0" d="M283.9,20.4c1.2,0.6,1.8,0.5,2.1,0.1c0.4-0.5,0.4-1.6-0.8-2.6c-1.2-1-3-2.9-3-2.9s3.2-3.6,3.4-4.4
		c0.3-0.8,0.6-1.2,0.1-1.6c-0.5-0.4-2.4,0-3.3,1.1c-0.3,0.3-4.1,3.4-4.1,5.1C278.5,17.1,282.8,19.8,283.9,20.4z"/>
	<ellipse transform="matrix(0.6642 -0.7475 0.7475 0.6642 84.7729 218.4007)" class="st0" cx="285.5" cy="14.8" rx="0.7" ry="0.7"/>
	<path class="st0" d="M272.8,20.5c1.2,0.6,1.8,0.5,2.1,0.1c0.4-0.5,0.4-1.6-0.8-2.6c-1.2-1-3-2.9-3-2.9s3.2-3.6,3.4-4.4
		c0.3-0.8,0.6-1.2,0.1-1.6c-0.5-0.4-2.4,0-3.3,1.1c-0.3,0.3-4.1,3.4-4.1,5.1C267.4,17.2,271.7,19.9,272.8,20.5z"/>
	<ellipse transform="matrix(0.6642 -0.7475 0.7475 0.6642 80.9845 210.1322)" class="st1" cx="274.4" cy="14.9" rx="0.7" ry="0.7"/>
	<path class="st0" d="M261.7,20.5c1.2,0.6,1.8,0.5,2.1,0.1c0.4-0.5,0.4-1.6-0.8-2.6c-1.2-1-3-2.9-3-2.9s3.2-3.6,3.4-4.4
		c0.3-0.8,0.6-1.2,0.1-1.6c-0.5-0.4-2.4,0-3.3,1.1c-0.3,0.3-4.1,3.4-4.1,5.1C256.3,17.2,260.6,19.9,261.7,20.5z"/>
	<ellipse transform="matrix(0.6642 -0.7475 0.7475 0.6642 77.196 201.8637)" class="st1" cx="263.3" cy="15" rx="0.7" ry="0.7"/>
	<path class="st0" d="M250.6,20.6c1.2,0.6,1.8,0.5,2.1,0.1c0.4-0.5,0.4-1.6-0.8-2.6c-1.2-1-3-2.9-3-2.9s3.2-3.6,3.4-4.4
		c0.3-0.8,0.6-1.2,0.1-1.6c-0.5-0.4-2.4,0-3.3,1.1c-0.3,0.3-4.1,3.4-4.1,5.1C245.2,17.3,249.5,20,250.6,20.6z"/>
	<ellipse transform="matrix(0.6642 -0.7475 0.7475 0.6642 73.4076 193.5952)" class="st1" cx="252.2" cy="15.1" rx="0.7" ry="0.7"/>
	<path class="st0" d="M239.5,20.7c1.2,0.6,1.8,0.5,2.1,0.1c0.4-0.5,0.4-1.6-0.8-2.6c-1.2-1-3-2.9-3-2.9s3.2-3.6,3.4-4.4
		c0.3-0.8,0.6-1.2,0.1-1.6c-0.5-0.4-2.4,0-3.3,1.1c-0.3,0.3-4.1,3.4-4.1,5.1C234.1,17.4,238.4,20.1,239.5,20.7z"/>
	<ellipse transform="matrix(0.6642 -0.7475 0.7475 0.6642 69.6191 185.3267)" class="st1" cx="241.1" cy="15.2" rx="0.7" ry="0.7"/>
	<path class="st0" d="M328.3,20.4c1.2,0.6,1.8,0.5,2.1,0.1c0.4-0.5,0.4-1.6-0.8-2.6c-1.2-1-3-2.9-3-2.9s3.2-3.6,3.4-4.4
		c0.3-0.8,0.6-1.2,0.1-1.6c-0.5-0.4-2.4,0-3.3,1.1c-0.3,0.3-4.1,3.4-4.1,5.1C322.9,17.1,327.2,19.8,328.3,20.4z"/>
	<ellipse transform="matrix(0.6642 -0.7475 0.7475 0.6642 99.6753 251.5788)" class="st1" cx="329.9" cy="14.8" rx="0.7" ry="0.7"/>
	<path class="st0" d="M317.2,20.5c1.2,0.6,1.8,0.5,2.1,0.1c0.4-0.5,0.4-1.6-0.8-2.6c-1.2-1-3-2.9-3-2.9s3.2-3.6,3.4-4.4
		c0.3-0.8,0.6-1.2,0.1-1.6c-0.5-0.4-2.4,0-3.3,1.1c-0.3,0.3-4.1,3.4-4.1,5.1C311.8,17.2,316.1,19.9,317.2,20.5z"/>
	<ellipse transform="matrix(0.6642 -0.7475 0.7475 0.6642 95.8869 243.3103)" class="st1" cx="318.8" cy="14.9" rx="0.7" ry="0.7"/>
	<path class="st0" d="M306.1,20.5c1.2,0.6,1.8,0.5,2.1,0.1c0.4-0.5,0.4-1.6-0.8-2.6c-1.2-1-3-2.9-3-2.9s3.2-3.6,3.4-4.4
		c0.3-0.8,0.6-1.2,0.1-1.6c-0.5-0.4-2.4,0-3.3,1.1c-0.3,0.3-4.1,3.4-4.1,5.1C300.7,17.2,305,19.9,306.1,20.5z"/>
	<ellipse transform="matrix(0.6642 -0.7475 0.7475 0.6642 92.0984 235.0418)" class="st1" cx="307.7" cy="15" rx="0.7" ry="0.7"/>
	<path class="st0" d="M295,20.6c1.2,0.6,1.8,0.5,2.1,0.1c0.4-0.5,0.4-1.6-0.8-2.6c-1.2-1-3-2.9-3-2.9s3.2-3.6,3.4-4.4
		c0.3-0.8,0.6-1.2,0.1-1.6c-0.5-0.4-2.4,0-3.3,1.1c-0.3,0.3-4.1,3.4-4.1,5.1C289.6,17.3,293.9,20,295,20.6z"/>
	<ellipse transform="matrix(0.6642 -0.7475 0.7475 0.6642 88.31 226.7733)" class="st1" cx="296.6" cy="15.1" rx="0.7" ry="0.7"/>
	<ellipse transform="matrix(0.6642 -0.7475 0.7475 0.6642 84.5215 218.5049)" class="st1" cx="285.5" cy="15.2" rx="0.7" ry="0.7"/>
	<path class="st0" d="M338.9,20.7c1.2,0.6,1.8,0.5,2.1,0.1c0.4-0.5,0.4-1.6-0.8-2.6c-1.2-1-3-2.9-3-2.9s3.2-3.6,3.4-4.4
		c0.3-0.8,0.6-1.2,0.1-1.6c-0.5-0.4-2.4,0-3.3,1.1c-0.3,0.3-4.1,3.4-4.1,5.1C333.5,17.4,337.8,20.1,338.9,20.7z"/>
	
		<ellipse transform="matrix(0.6642 -0.7475 0.7475 0.6642 102.9881 259.6183)" class="st1" cx="340.5" cy="15.2" rx="0.7" ry="0.7"/>
	<path class="st0" d="M119.7,20.4c-1.2,0.6-1.8,0.5-2.1,0.1c-0.4-0.5-0.4-1.6,0.8-2.6c1.2-1,3-2.9,3-2.9s-3.2-3.6-3.4-4.4
		c-0.3-0.8-0.6-1.2-0.1-1.6c0.5-0.4,2.4,0,3.3,1.1c0.3,0.3,4.1,3.4,4.1,5.1C125.2,17.1,120.9,19.8,119.7,20.4z"/>
	<ellipse transform="matrix(0.7475 -0.6642 0.6642 0.7475 19.9811 82.2324)" class="st1" cx="118.2" cy="14.8" rx="0.7" ry="0.7"/>
	<path class="st0" d="M130.8,20.5c-1.2,0.6-1.8,0.5-2.1,0.1c-0.4-0.5-0.4-1.6,0.8-2.6c1.2-1,3-2.9,3-2.9s-3.2-3.6-3.4-4.4
		c-0.3-0.8-0.6-1.2-0.1-1.6c0.5-0.4,2.4,0,3.3,1.1c0.3,0.3,4.1,3.4,4.1,5.1C136.3,17.2,132,19.9,130.8,20.5z"/>
	<ellipse transform="matrix(0.7475 -0.6642 0.6642 0.7475 22.7282 89.6255)" class="st1" cx="129.3" cy="14.9" rx="0.7" ry="0.7"/>
	<path class="st0" d="M141.9,20.5c-1.2,0.6-1.8,0.5-2.1,0.1c-0.4-0.5-0.4-1.6,0.8-2.6c1.2-1,3-2.9,3-2.9s-3.2-3.6-3.4-4.4
		c-0.3-0.8-0.6-1.2-0.1-1.6c0.5-0.4,2.4,0,3.3,1.1c0.3,0.3,4.1,3.4,4.1,5.1C147.4,17.2,143.1,19.9,141.9,20.5z"/>
	<ellipse transform="matrix(0.7475 -0.6642 0.6642 0.7475 25.4752 97.0186)" class="st1" cx="140.4" cy="15" rx="0.7" ry="0.7"/>
	<path class="st0" d="M153,20.6c-1.2,0.6-1.8,0.5-2.1,0.1c-0.4-0.5-0.4-1.6,0.8-2.6c1.2-1,3-2.9,3-2.9s-3.2-3.6-3.4-4.4
		c-0.3-0.8-0.6-1.2-0.1-1.6c0.5-0.4,2.4,0,3.3,1.1c0.3,0.3,4.1,3.4,4.1,5.1C158.5,17.3,154.2,20,153,20.6z"/>
	<ellipse transform="matrix(0.7475 -0.6642 0.6642 0.7475 28.2223 104.4117)" class="st1" cx="151.5" cy="15.1" rx="0.7" ry="0.7"/>
	<path class="st0" d="M164.1,20.7c-1.2,0.6-1.8,0.5-2.1,0.1c-0.4-0.5-0.4-1.6,0.8-2.6c1.2-1,3-2.9,3-2.9s-3.2-3.6-3.4-4.4
		c-0.3-0.8-0.6-1.2-0.1-1.6c0.5-0.4,2.4,0,3.3,1.1c0.3,0.3,4.1,3.4,4.1,5.1C169.6,17.4,165.3,20.1,164.1,20.7z"/>
	<ellipse transform="matrix(0.7475 -0.6642 0.6642 0.7475 30.9694 111.8048)" class="st1" cx="162.6" cy="15.2" rx="0.7" ry="0.7"/>
	<path class="st0" d="M64.7,20.4c-1.2,0.6-1.8,0.5-2.1,0.1c-0.4-0.5-0.4-1.6,0.8-2.6c1.2-1,3-2.9,3-2.9s-3.2-3.6-3.4-4.4
		c-0.3-0.8-0.6-1.2-0.1-1.6c0.5-0.4,2.4,0,3.3,1.1c0.3,0.3,4.1,3.4,4.1,5.1C70.2,17.1,65.9,19.8,64.7,20.4z"/>
	<ellipse transform="matrix(0.7475 -0.6642 0.6642 0.7475 6.0945 45.699)" class="st0" cx="63.2" cy="14.8" rx="0.7" ry="0.7"/>
	<path class="st0" d="M75.8,20.5c-1.2,0.6-1.8,0.5-2.1,0.1c-0.4-0.5-0.4-1.6,0.8-2.6c1.2-1,3-2.9,3-2.9s-3.2-3.6-3.4-4.4
		c-0.3-0.8-0.6-1.2-0.1-1.6c0.5-0.4,2.4,0,3.3,1.1c0.3,0.3,4.1,3.4,4.1,5.1C81.3,17.2,77,19.9,75.8,20.5z"/>
	<ellipse transform="matrix(0.7475 -0.6642 0.6642 0.7475 8.8416 53.0921)" class="st1" cx="74.3" cy="14.9" rx="0.7" ry="0.7"/>
	<path class="st0" d="M86.9,20.5c-1.2,0.6-1.8,0.5-2.1,0.1c-0.4-0.5-0.4-1.6,0.8-2.6c1.2-1,3-2.9,3-2.9s-3.2-3.6-3.4-4.4
		c-0.3-0.8-0.6-1.2-0.1-1.6c0.5-0.4,2.4,0,3.3,1.1c0.3,0.3,4.1,3.4,4.1,5.1C92.4,17.2,88.1,19.9,86.9,20.5z"/>
	<ellipse transform="matrix(0.7475 -0.6642 0.6642 0.7475 11.5887 60.4852)" class="st1" cx="85.4" cy="15" rx="0.7" ry="0.7"/>
	<path class="st0" d="M98,20.6c-1.2,0.6-1.8,0.5-2.1,0.1c-0.4-0.5-0.4-1.6,0.8-2.6c1.2-1,3-2.9,3-2.9s-3.2-3.6-3.4-4.4
		c-0.3-0.8-0.6-1.2-0.1-1.6c0.5-0.4,2.4,0,3.3,1.1c0.3,0.3,4.1,3.4,4.1,5.1C103.5,17.3,99.2,20,98,20.6z"/>
	<ellipse transform="matrix(0.7475 -0.6642 0.6642 0.7475 14.3357 67.8783)" class="st1" cx="96.5" cy="15.1" rx="0.7" ry="0.7"/>
	<path class="st0" d="M109.1,20.7c-1.2,0.6-1.8,0.5-2.1,0.1c-0.4-0.5-0.4-1.6,0.8-2.6c1.2-1,3-2.9,3-2.9s-3.2-3.6-3.4-4.4
		c-0.3-0.8-0.6-1.2-0.1-1.6c0.5-0.4,2.4,0,3.3,1.1c0.3,0.3,4.1,3.4,4.1,5.1C114.6,17.4,110.3,20.1,109.1,20.7z"/>
	<ellipse transform="matrix(0.7475 -0.6642 0.6642 0.7475 17.0828 75.2714)" class="st1" cx="107.6" cy="15.2" rx="0.7" ry="0.7"/>
	<path class="st0" d="M20.3,20.4c-1.2,0.6-1.8,0.5-2.1,0.1C17.8,20,17.9,19,19,17.9c1.2-1,3-2.9,3-2.9s-3.2-3.6-3.4-4.4
		C18.3,9.8,18,9.4,18.5,9c0.5-0.4,2.4,0,3.3,1.1c0.3,0.3,4.1,3.4,4.1,5.1C25.8,17.1,21.5,19.8,20.3,20.4z"/>
	<ellipse transform="matrix(0.7475 -0.6642 0.6642 0.7475 -5.1118 16.2169)" class="st1" cx="18.8" cy="14.8" rx="0.7" ry="0.7"/>
	<path class="st0" d="M31.4,20.5c-1.2,0.6-1.8,0.5-2.1,0.1C28.9,20.1,29,19,30.1,18c1.2-1,3-2.9,3-2.9s-3.2-3.6-3.4-4.4
		c-0.3-0.8-0.6-1.2-0.1-1.6c0.5-0.4,2.4,0,3.3,1.1c0.3,0.3,4.1,3.4,4.1,5.1C36.9,17.2,32.6,19.9,31.4,20.5z"/>
	<ellipse transform="matrix(0.7475 -0.6642 0.6642 0.7475 -2.3648 23.61)" class="st1" cx="29.9" cy="14.9" rx="0.7" ry="0.7"/>
	<path class="st0" d="M42.5,20.5c-1.2,0.6-1.8,0.5-2.1,0.1c-0.4-0.5-0.4-1.6,0.8-2.6c1.2-1,3-2.9,3-2.9s-3.2-3.6-3.4-4.4
		c-0.3-0.8-0.6-1.2-0.1-1.6c0.5-0.4,2.4,0,3.3,1.1c0.3,0.3,4.1,3.4,4.1,5.1C48,17.2,43.7,19.9,42.5,20.5z"/>
	<ellipse transform="matrix(0.7475 -0.6642 0.6642 0.7475 0.3823 31.0031)" class="st1" cx="41" cy="15" rx="0.7" ry="0.7"/>
	<path class="st0" d="M53.6,20.6c-1.2,0.6-1.8,0.5-2.1,0.1c-0.4-0.5-0.4-1.6,0.8-2.6c1.2-1,3-2.9,3-2.9s-3.2-3.6-3.4-4.4
		c-0.3-0.8-0.6-1.2-0.1-1.6c0.5-0.4,2.4,0,3.3,1.1c0.3,0.3,4.1,3.4,4.1,5.1C59.1,17.3,54.8,20,53.6,20.6z"/>
	<ellipse transform="matrix(0.7475 -0.6642 0.6642 0.7475 3.1294 38.3962)" class="st1" cx="52.1" cy="15.1" rx="0.7" ry="0.7"/>
	<ellipse transform="matrix(0.7475 -0.6642 0.6642 0.7475 5.8764 45.7893)" class="st1" cx="63.2" cy="15.2" rx="0.7" ry="0.7"/>
	<path class="st0" d="M9.7,20.7c-1.2,0.6-1.8,0.5-2.1,0.1c-0.4-0.5-0.4-1.6,0.8-2.6c1.2-1,3-2.9,3-2.9S8.2,11.7,8,10.9
		c-0.3-0.8-0.6-1.2-0.1-1.6c0.5-0.4,2.4,0,3.3,1.1c0.3,0.3,4.1,3.4,4.1,5.1C15.2,17.4,10.9,20.1,9.7,20.7z"/>
	<ellipse transform="matrix(0.7475 -0.6642 0.6642 0.7475 -8.0102 9.2559)" class="st1" cx="8.2" cy="15.2" rx="0.7" ry="0.7"/>
</g>
</svg>
