<svg version="1.1" xmlns="http://www.w3.org/2000/svg" xmlns:xlink="http://www.w3.org/1999/xlink" x="0px" y="0px"
	 viewBox="0 0 129 25.6" style="enable-background:new 0 0 129 25.6;" xml:space="preserve">
<g>
	<g>
		<g>
			<path d="M11.6,8.3c-1.2-0.6-1.8-0.5-2.1-0.1c-0.4,0.5-0.4,1.6,0.8,2.6c1.2,1,3,2.9,3,2.9s-3.2,3.6-3.4,4.4
				c-0.3,0.8-0.6,1.2-0.1,1.6c0.5,0.4,2.4,0,3.3-1.1c0.3-0.3,4.1-3.4,4.1-5.1C17.1,11.6,12.8,8.9,11.6,8.3z"/>
			<ellipse transform="matrix(0.6642 -0.7475 0.7475 0.6642 -6.9453 12.1309)" cx="10" cy="13.8" rx="0.7" ry="0.7"/>
		</g>
		<g>
			<path d="M22.7,8.2c-1.2-0.6-1.8-0.5-2.1-0.1c-0.4,0.5-0.4,1.6,0.8,2.6c1.2,1,3,2.9,3,2.9s-3.2,3.6-3.4,4.4
				c-0.3,0.8-0.6,1.2-0.1,1.6c0.5,0.4,2.4,0,3.3-1.1c0.3-0.3,4.1-3.4,4.1-5.1C28.1,11.5,23.9,8.8,22.7,8.2z"/>
			<ellipse transform="matrix(0.6642 -0.7475 0.7475 0.6642 -3.1568 20.3994)" cx="21.1" cy="13.7" rx="0.7" ry="0.7"/>
		</g>
		<g>
			<path d="M33.8,8.1C32.6,7.5,32,7.5,31.7,8c-0.4,0.5-0.4,1.6,0.8,2.6c1.2,1,3,2.9,3,2.9s-3.2,3.6-3.4,4.4
				c-0.3,0.8-0.6,1.2-0.1,1.6c0.5,0.4,2.4,0,3.3-1.1c0.3-0.3,4.1-3.4,4.1-5.1C39.2,11.4,35,8.7,33.8,8.1z"/>
			<ellipse transform="matrix(0.6642 -0.7475 0.7475 0.6642 0.6316 28.6679)" cx="32.2" cy="13.6" rx="0.7" ry="0.7"/>
		</g>
		<g>
			<path d="M44.9,8c-1.2-0.6-1.8-0.5-2.1-0.1c-0.4,0.5-0.4,1.6,0.8,2.6c1.2,1,3,2.9,3,2.9s-3.2,3.6-3.4,4.4
				c-0.3,0.8-0.6,1.2-0.1,1.6c0.5,0.4,2.4,0,3.3-1.1c0.3-0.3,4.1-3.4,4.1-5.1C50.3,11.3,46.1,8.6,44.9,8z"/>
			<ellipse transform="matrix(0.6642 -0.7475 0.7475 0.6642 4.4201 36.9364)" cx="43.3" cy="13.5" rx="0.7" ry="0.7"/>
		</g>
		<g>
			<path d="M56,7.9c-1.2-0.6-1.8-0.5-2.1-0.1c-0.4,0.5-0.4,1.6,0.8,2.6c1.2,1,3,2.9,3,2.9s-3.2,3.6-3.4,4.4
				c-0.3,0.8-0.6,1.2-0.1,1.6c0.5,0.4,2.4,0,3.3-1.1c0.3-0.3,4.1-3.4,4.1-5.1C61.4,11.2,57.2,8.5,56,7.9z"/>
			<ellipse transform="matrix(0.6642 -0.7475 0.7475 0.6642 8.2086 45.2049)" cx="54.4" cy="13.5" rx="0.7" ry="0.7"/>
		</g>
		<g>
			<path d="M117.4,19c1.2,0.6,1.8,0.5,2.1,0.1c0.4-0.5,0.4-1.6-0.8-2.6c-1.2-1-3-2.9-3-2.9s3.2-3.6,3.4-4.4
				c0.3-0.8,0.6-1.2,0.1-1.6c-0.5-0.4-2.4,0-3.3,1.1c-0.3,0.3-4.1,3.4-4.1,5.1C111.9,15.7,116.2,18.4,117.4,19z"/>
			<ellipse transform="matrix(0.6642 -0.7475 0.7475 0.6642 29.8814 93.4511)" cx="119" cy="13.5" rx="0.7" ry="0.7"/>
		</g>
		<g>
			<path d="M106.3,19.1c1.2,0.6,1.8,0.5,2.1,0.1c0.4-0.5,0.4-1.6-0.8-2.6c-1.2-1-3-2.9-3-2.9s3.2-3.6,3.4-4.4
				c0.3-0.8,0.6-1.2,0.1-1.6c-0.5-0.4-2.4,0-3.3,1.1c-0.3,0.3-4.1,3.4-4.1,5.1C100.9,15.8,105.1,18.5,106.3,19.1z"/>
			
				<ellipse transform="matrix(0.6642 -0.7475 0.7475 0.6642 26.0929 85.1826)" cx="107.9" cy="13.5" rx="0.7" ry="0.7"/>
		</g>
		<g>
			<path d="M95.2,19.2c1.2,0.6,1.8,0.5,2.1,0.1c0.4-0.5,0.4-1.6-0.8-2.6c-1.2-1-3-2.9-3-2.9s3.2-3.6,3.4-4.4
				c0.3-0.8,0.6-1.2,0.1-1.6c-0.5-0.4-2.4,0-3.3,1.1c-0.3,0.3-4.1,3.4-4.1,5.1C89.8,15.9,94,18.6,95.2,19.2z"/>
			<ellipse transform="matrix(0.6642 -0.7475 0.7475 0.6642 22.3045 76.9141)" cx="96.8" cy="13.6" rx="0.7" ry="0.7"/>
		</g>
		<g>
			<path d="M84.1,19.2c1.2,0.6,1.8,0.5,2.1,0.1c0.4-0.5,0.4-1.6-0.8-2.6c-1.2-1-3-2.9-3-2.9s3.2-3.6,3.4-4.4
				c0.3-0.8,0.6-1.2,0.1-1.6c-0.5-0.4-2.4,0-3.3,1.1c-0.3,0.3-4.1,3.4-4.1,5.1C78.7,15.9,82.9,18.7,84.1,19.2z"/>
			<ellipse transform="matrix(0.6642 -0.7475 0.7475 0.6642 18.516 68.6456)" cx="85.7" cy="13.7" rx="0.7" ry="0.7"/>
		</g>
		<g>
			<path d="M73,19.3c1.2,0.6,1.8,0.5,2.1,0.1c0.4-0.5,0.4-1.6-0.8-2.6c-1.2-1-3-2.9-3-2.9s3.2-3.6,3.4-4.4
				C75,8.8,75.3,8.4,74.9,8c-0.5-0.4-2.4,0-3.3,1.1c-0.3,0.3-4.1,3.4-4.1,5.1C67.6,16,71.8,18.7,73,19.3z"/>
			<ellipse transform="matrix(0.6642 -0.7475 0.7475 0.6642 14.7275 60.3772)" cx="74.6" cy="13.8" rx="0.7" ry="0.7"/>
		</g>
	</g>
</g>
</svg>
