<svg version="1.1" xmlns="http://www.w3.org/2000/svg" xmlns:xlink="http://www.w3.org/1999/xlink" x="0px" y="0px"
	 viewBox="0 0 316 32" style="enable-background:new 0 0 316 32;" xml:space="preserve">
<style type="text/css">
	.st0{fill:#AF976D;}
	.st1{fill:#B0B7C0;}
</style>
<g>
	<g>
		<path class="st0" d="M58.6,9.8h-4.2v4.8h3.5v1.7h-3.5v7.6h-1.8V8.1h6V9.8z"/>
		<path class="st0" d="M67.7,19.9c0,2.3-1.3,4.1-3.7,4.1c-2.6,0-3.7-1.9-3.7-4.1v-7.8c0-2.2,1.2-4.1,3.7-4.1c2.4,0,3.7,1.8,3.7,4.1
			V19.9z M62,19.9c0,1.3,0.4,2.4,1.9,2.4c1.6,0,1.9-1.2,1.9-2.4v-7.8c0-1.2-0.3-2.4-1.9-2.4c-1.5,0-1.9,1.1-1.9,2.4V19.9z"/>
		<path class="st0" d="M71.5,23.9h-1.8V8.1h3.4c2.5,0,3.4,1,3.4,3.4v2.9c0,1.1-0.4,1.4-0.8,1.9c0.6,0.6,0.8,1.3,0.8,2.4v0.7
			c0,2.8,0.1,3.9,0.4,4.4h-1.8c-0.3-0.5-0.4-1.8-0.4-4.4V19c0-1.3-0.3-1.6-1.6-1.6h-1.6V23.9z M71.5,15.7h1.6c1.3,0,1.6-0.3,1.6-1.6
			v-2.7c0-1.3-0.3-1.6-1.6-1.6h-1.6V15.7z"/>
		<path class="st0" d="M90.1,9.8h-2.8v14.1h-1.8V9.8h-2.8V8.1h7.5V9.8z"/>
		<path class="st0" d="M99.1,23.9h-1.8v-7.6h-3.9v7.6h-1.8V8.1h1.8v6.4h3.9V8.1h1.8V23.9z"/>
		<path class="st0" d="M103,9.8v4.8h3.5v1.7H103v6h4.2v1.7h-6V8.1h6v1.7H103z"/>
		<path class="st0" d="M121.1,12.1h-1.8c0-1.9-1.2-2.4-1.9-2.4s-1.9,0.2-1.9,2.3c0,0.4,0,1.2,1,1.9c2.7,2.2,4.7,3.2,4.7,5.8
			c0,4-2.9,4.3-3.7,4.3c-1.7,0-3.7-0.9-3.7-4.1h1.8c0,1.9,1.2,2.4,1.9,2.4c1.2,0,1.9-1,1.9-2.7c0-1.7-1.5-2.4-4-4.4
			c-1.6-1.3-1.6-2.8-1.6-3.4c0-3.7,2.9-4,3.7-4c1.1,0,1.9,0.3,2.5,0.9C120.4,9.3,121.1,10.3,121.1,12.1z"/>
		<path class="st0" d="M130,23.9h-1.8l-0.5-2.9h-2.9l-0.5,2.9h-1.8l2.9-15.7h1.8L130,23.9z M125.1,19.3h2.3l-1.2-6.7L125.1,19.3z"/>
		<path class="st0" d="M136.1,14.2l3.3,9.7h-1.9l-2.6-7.6l-1.1,2.2v5.5h-1.8V8.1h1.8v6.7l3.4-6.7h2L136.1,14.2z"/>
		<path class="st0" d="M142.8,9.8v4.8h3.5v1.7h-3.5v6h4.2v1.7h-6V8.1h6v1.7H142.8z"/>
		<path class="st0" d="M161.2,19.9c0,2.3-1.3,4.1-3.7,4.1c-2.6,0-3.7-1.9-3.7-4.1v-7.8c0-2.2,1.2-4.1,3.7-4.1c2.4,0,3.7,1.8,3.7,4.1
			V19.9z M155.5,19.9c0,1.3,0.4,2.4,1.9,2.4c1.6,0,1.9-1.2,1.9-2.4v-7.8c0-1.2-0.3-2.4-1.9-2.4c-1.5,0-1.9,1.1-1.9,2.4V19.9z"/>
		<path class="st0" d="M169.2,9.8H165v4.8h3.5v1.7H165v7.6h-1.8V8.1h6V9.8z"/>
		<path class="st0" d="M183.2,15.9v4c0,1.8-0.7,2.8-1.3,3.3c-0.6,0.5-1.3,0.8-2.4,0.8c-1.1,0-1.9-0.3-2.5-0.8
			c-0.6-0.5-1.3-1.5-1.3-3.3v-7.8c0-1.8,0.7-2.8,1.3-3.3c0.6-0.5,1.3-0.8,2.5-0.8c1.1,0,1.9,0.3,2.4,0.8c0.6,0.5,1.3,1.5,1.3,3.3
			h-1.8c0-1-0.2-1.7-0.7-2c-0.4-0.4-0.9-0.4-1.3-0.4c-0.3,0-0.8,0-1.3,0.4c-0.5,0.4-0.7,1-0.7,2v7.8c0,1,0.2,1.7,0.7,2
			c0.4,0.4,0.9,0.4,1.3,0.4c0.3,0,0.8,0,1.3-0.4c0.5-0.4,0.7-1,0.7-2v-2.3h-1.1v-1.7H183.2z"/>
		<path class="st0" d="M192.5,19.9c0,2.3-1.3,4.1-3.7,4.1c-2.6,0-3.7-1.9-3.7-4.1v-7.8c0-2.2,1.2-4.1,3.7-4.1c2.4,0,3.7,1.8,3.7,4.1
			V19.9z M186.9,19.9c0,1.3,0.4,2.4,1.9,2.4c1.6,0,1.9-1.2,1.9-2.4v-7.8c0-1.2-0.3-2.4-1.9-2.4c-1.5,0-1.9,1.1-1.9,2.4V19.9z"/>
		<path class="st0" d="M201.9,19.9c0,2.3-1.3,4.1-3.7,4.1c-2.6,0-3.7-1.9-3.7-4.1v-7.8c0-2.2,1.2-4.1,3.7-4.1c2.4,0,3.7,1.8,3.7,4.1
			V19.9z M196.2,19.9c0,1.3,0.4,2.4,1.9,2.4c1.6,0,1.9-1.2,1.9-2.4v-7.8c0-1.2-0.3-2.4-1.9-2.4c-1.5,0-1.9,1.1-1.9,2.4V19.9z"/>
		<path class="st0" d="M203.8,8.1h3.6c2.5,0,3.4,1,3.4,3.4v9c0,2.4-0.9,3.4-3.4,3.4h-3.6V8.1z M207.5,9.8h-1.8v12.4h1.8
			c1.3,0,1.6-0.3,1.6-1.6v-9.2C209.1,10.1,208.8,9.8,207.5,9.8z"/>
		<path class="st0" d="M217.9,8.1h3.6c2.5,0,3.4,1,3.4,3.4v9c0,2.4-0.9,3.4-3.4,3.4h-3.6V8.1z M221.5,9.8h-1.8v12.4h1.8
			c1.3,0,1.6-0.3,1.6-1.6v-9.2C223.1,10.1,222.8,9.8,221.5,9.8z"/>
		<path class="st0" d="M228.9,9.8v4.8h3.5v1.7h-3.5v6h4.2v1.7h-6V8.1h6v1.7H228.9z"/>
		<path class="st0" d="M242,12.1h-1.8c0-1.9-1.2-2.4-1.9-2.4s-1.9,0.2-1.9,2.3c0,0.4,0,1.2,1,1.9c2.7,2.2,4.7,3.2,4.7,5.8
			c0,4-2.9,4.3-3.7,4.3c-1.7,0-3.7-0.9-3.7-4.1h1.8c0,1.9,1.2,2.4,1.9,2.4c1.2,0,1.9-1,1.9-2.7c0-1.7-1.5-2.4-4-4.4
			c-1.6-1.3-1.6-2.8-1.6-3.4c0-3.7,2.9-4,3.7-4c1.1,0,1.9,0.3,2.5,0.9C241.3,9.3,242,10.3,242,12.1z"/>
		<path class="st0" d="M245.9,23.9h-1.8V8.1h1.8V23.9z"/>
		<path class="st0" d="M255.6,15.9v4c0,1.8-0.7,2.8-1.3,3.3c-0.6,0.5-1.3,0.8-2.4,0.8c-1.1,0-1.9-0.3-2.5-0.8
			c-0.6-0.5-1.3-1.5-1.3-3.3v-7.8c0-1.8,0.7-2.8,1.3-3.3c0.6-0.5,1.3-0.8,2.5-0.8c1.1,0,1.9,0.3,2.4,0.8c0.6,0.5,1.3,1.5,1.3,3.3
			h-1.8c0-1-0.2-1.7-0.7-2c-0.4-0.4-0.9-0.4-1.3-0.4c-0.3,0-0.8,0-1.3,0.4c-0.5,0.4-0.7,1-0.7,2v7.8c0,1,0.2,1.7,0.7,2
			c0.4,0.4,0.9,0.4,1.3,0.4c0.3,0,0.8,0,1.3-0.4c0.5-0.4,0.7-1,0.7-2v-2.3h-1.1v-1.7H255.6z"/>
		<path class="st0" d="M265.3,8.1v15.7h-2.2l-3.5-10.6v10.6h-1.8V8.1h1.8l3.9,11.7V8.1H265.3z"/>
	</g>
	<g>
		<path class="st1" d="M32.6,13.2c0,0,0.1,0,0.2-0.1C33,13,33.3,13,33.3,13s10.1,4.2,9,6.4c-0.9,2-7.9-3.9-9.2-5.1
			c-1.6,1.5-7.7,7-9.1,5.4C22.4,18,32.6,13.2,32.6,13.2z"/>
		<path class="st1" d="M33.7,19.9c0,0-0.1,0-0.2,0.1c-0.2,0.1-0.6,0.1-0.6,0.1s-10.1-4.2-9-6.4c0.9-2,7.9,3.9,9.2,5.1
			c1.6-1.5,7.7-7,9.1-5.4C43.9,15.1,33.7,19.9,33.7,19.9z"/>
	</g>
	<path class="st1" d="M16.2,19.9c0,0-0.1,0-0.2,0.1c-0.2,0.1-0.6,0.1-0.6,0.1s-10.1-4.2-9-6.4c0.9-2,7.9,3.9,9.2,5.1
		c1.6-1.5,7.7-7,9.1-5.4C26.4,15.1,16.2,19.9,16.2,19.9z"/>
	<path class="st1" d="M15.2,13.2c0,0,0.1,0,0.2-0.1C15.7,13,16,13,16,13s10.1,4.2,9,6.4c-0.9,2-7.9-3.9-9.2-5.1
		c-1.6,1.5-7.7,7-9.1,5.4C5.1,18,15.2,13.2,15.2,13.2z"/>
	<g>
		<g>
			<path class="st1" d="M300.4,13c0,0,0.1,0,0.2-0.1c0.2-0.1,0.6-0.1,0.6-0.1s10.1,4.2,9,6.4c-0.9,2-7.9-3.9-9.2-5.1
				c-1.6,1.5-7.7,7-9.1,5.4C290.3,17.9,300.4,13,300.4,13z"/>
			<path class="st1" d="M301.6,19.8c0,0-0.1,0-0.2,0.1c-0.2,0.1-0.6,0.1-0.6,0.1s-10.1-4.2-9-6.4c0.9-2,7.9,3.9,9.2,5.1
				c1.6-1.5,7.7-7,9.1-5.4C311.8,14.9,301.6,19.8,301.6,19.8z"/>
		</g>
		<path class="st1" d="M284.1,20.1c0,0-0.1,0-0.2,0.1c-0.2,0.1-0.6,0.1-0.6,0.1s-10.1-4.2-9-6.4c0.9-2,7.9,3.9,9.2,5.1
			c1.6-1.5,7.7-7,9.1-5.4C294.3,15.2,284.1,20.1,284.1,20.1z"/>
		<path class="st1" d="M283.1,13.3c0,0,0.1,0,0.2-0.1c0.2-0.1,0.6-0.1,0.6-0.1s10.1,4.2,9,6.4c-0.9,2-7.9-3.9-9.2-5.1
			c-1.6,1.5-7.7,7-9.1,5.4C273,18.2,283.1,13.3,283.1,13.3z"/>
	</g>
</g>
</svg>
