<svg version="1.1" id="Layer_1" xmlns="http://www.w3.org/2000/svg" xmlns:xlink="http://www.w3.org/1999/xlink" x="0px" y="0px" viewBox="0 0 220.8 242.4" style="enable-background:new 0 0 220.8 242.4;" xml:space="preserve">
<path d="M167.2,19.8C124.6-8.4,24.1-15.1,3.4,58.3c-9.3,32.9,6.2,59,32.5,59.8c0.6,0,1,0.3,0.7,0.7c-1,1.7-12,9.5-11.4,22.6
	c0.7,13.6,12,18.8,13,19.7c0.2,0.2,0.3,0.5-0.2,0.7s-1.5,0.5-2.3,0.8c-2.2,0.8-25.6,8.6-32.8,28.1c-8.8,23.9,3.9,42.1,20.2,41.8
	c12.9-0.2,20.3-10.6,20.6-19.1c0.4-9.6-5.9-20-16.7-21.9c-7-1.2-10.4,0.3-13.1,1.5c-0.7,0.3-1.3-0.7-0.7-1.2c2.3-2.1,7.3-4.5,15.5-3
	c23.3,4.2,44.6,55,101.9,53.6c24.9-0.6,44.9-12,58.7-25.8C234.1,171.5,234.8,64.5,167.2,19.8z M38,86.4c0.3,16.2,5.7,22.3,11.4,27.7
	c5.9,5.6,21.3,14.2,20.9,25.5c-0.5,12.7-11.1,17.9-19,17.9c-7.5,0-18.6-5.8-18.4-17.5c0.3-14.7,16.7-19.7,15.7-24.2
	c-0.2-0.9-1.2-2.4-3.3-2.5c-3.7-0.2-18.7-0.8-27.3-8.9c-9.9-9.1-21.6-35,12.7-52.3c17.9-9.1,36.9-9.9,40-8c0.6,0.4,1.1,0.9,0.3,1.6
	C68.7,48.1,37.4,57.9,38,86.4z M162.4,214.3c-26.7,3.4-46.5-44.7-85.9-48.4c-0.8-0.1-1-0.7-0.3-1c1.7-0.8,39.4-8.6,39.7-39
	c0.3-28.1-19.4-39.4-31.2-49.6c-6.6-5.7-13.8-20.6-3.7-28.2c9.7-7.3,57.5,1.9,91.1,31.8C239.2,139.9,205,208.9,162.4,214.3z"/>
</svg>
