<svg version="1.1" xmlns="http://www.w3.org/2000/svg" xmlns:xlink="http://www.w3.org/1999/xlink" x="0px" y="0px"
	 viewBox="0 0 84 61.9" style="enable-background:new 0 0 84 61.9;" xml:space="preserve">
<path d="M43.3,57c0,0-0.1,0-0.2,0.1c-0.3,0.1-0.6,0.1-0.6,0.1s-11.1-3.9-10.2-6.3c0.8-2.2,8.8,3.7,10.3,4.8
	c1.6-1.7,7.8-8.1,9.4-6.5C53.9,51,43.3,57,43.3,57z"/>
<path d="M77.6,34.8c0.3-0.9-1-2.5-6.4-2.1c-9.6,0.7-14.6,6.6-18,9.4c-2.8,2.4-9,8.6-11,10.6l-0.1,0.1
	c-2.4-2.2-8.3-7.5-11.1-9.6c-3.5-2.7-8.9-8.3-18.5-8.4c-5.4-0.1-6.7,1.6-6.3,2.5c0.5,1.1,5.1-0.6,9-0.3s9.1,2.4,15,7.2
	s11.9,10.6,11.9,10.6l0.5-0.5l0,0c0,0,5.7-6.1,11.3-11.2c5.6-5.2,10.7-7.5,14.6-8C72.5,34.5,77.2,35.9,77.6,34.8z"/>
<path d="M67,24.4c-0.9-0.8-3.9,1.2-4.7,1.8c-1.4,1.1-3.7,3.1-7.3,7.6c-3,3.8-10.7,12.8-12.9,15.4
	C40,47,24,30.7,22.4,29.2c-1.1-1-5.1-3.7-5.5-3.3c-0.8,0.9,1.2,3.9,1.8,4.7c1.1,1.4,3.1,3.7,7.6,7.3s16,13.5,16,13.5l1.1-1.2l0,0
	l0.3-0.3c0,0,18.5-18.3,20.1-20C64.8,28.8,67.4,24.8,67,24.4z"/>
<path d="M16.9,31.2c-0.3-0.3-0.8-0.2-1.2,0.1c-0.3,0.4-0.3,0.9,0,1.2s0.8,0.2,1.2-0.1C17.3,32,17.3,31.5,16.9,31.2z"/>
<path d="M22,25.5c-0.4-0.3-0.9-0.3-1.2,0c-0.3,0.3-0.3,0.9,0.1,1.2c0.4,0.3,0.9,0.3,1.2,0C22.4,26.4,22.4,25.8,22,25.5z
	"/>
<path d="M23.2,23.1c-0.3-0.3-0.8-0.2-1,0.1c-0.3,0.3-0.2,0.8,0.1,1c0.3,0.3,0.8,0.2,1-0.1
	C23.5,23.9,23.5,23.4,23.2,23.1z"/>
<path d="M20.3,23.7c-0.3-0.2-0.7-0.2-0.9,0c-0.2,0.3-0.2,0.7,0,0.9c0.3,0.2,0.7,0.2,0.9,0
	C20.6,24.3,20.6,23.9,20.3,23.7z"/>
<path d="M14.7,29.9c-0.3-0.3-0.7-0.2-1,0.1c-0.3,0.3-0.2,0.7,0.1,1s0.7,0.2,1,0C15,30.6,15,30.2,14.7,29.9z"/>
<path d="M14.7,32.2c-0.4-0.3-1-0.3-1.3,0.1c-0.3,0.4-0.3,1,0.1,1.3c0.4,0.3,1,0.3,1.3-0.1
	C15.1,33.1,15.1,32.5,14.7,32.2z"/>
<path d="M67.6,29c-0.3-0.3-0.8-0.3-1.2,0.1c-0.3,0.3-0.3,0.9,0.1,1.2c0.3,0.3,0.8,0.3,1.2-0.1C68,29.8,68,29.3,67.6,29z
	"/>
<path d="M69.6,30.2c-0.4-0.3-0.9-0.3-1.3,0.1c-0.3,0.4-0.3,0.9,0.1,1.3c0.4,0.3,0.9,0.3,1.3-0.1
	C70,31.1,70,30.6,69.6,30.2z"/>
<path d="M69.7,27.4c-0.3-0.3-0.8-0.2-1,0.1c-0.3,0.3-0.2,0.8,0.1,1c0.3,0.3,0.8,0.2,1-0.1C70,28.2,70,27.7,69.7,27.4z"
	/>
<path d="M63.4,21.8c-0.3-0.3-0.8-0.2-1,0.1c-0.3,0.3-0.2,0.8,0.1,1c0.3,0.3,0.8,0.2,1-0.1
	C63.7,22.5,63.7,22.1,63.4,21.8z"/>
<path d="M61.1,21.7c-0.3-0.3-0.8-0.3-1.1,0.1c-0.3,0.3-0.3,0.8,0.1,1.1c0.3,0.3,0.8,0.3,1.1-0.1
	C61.5,22.5,61.4,22,61.1,21.7z"/>
<path d="M62.1,23.9c-0.3-0.3-0.8-0.3-1.1,0.1c-0.3,0.3-0.3,0.8,0.1,1.1c0.3,0.3,0.8,0.3,1.1-0.1
	C62.5,24.7,62.5,24.2,62.1,23.9z"/>
<path d="M57.2,17.4c-1.3-3.3-1.5-1.1-1.5-1.1S56.3,19,56,21s-0.6,5.2-1.8,7.9s-2.7,5-4.9,7.8c-1.7,2.2-5.8,6.9-7.4,8.7
	c-1.6-1.6-6-6.2-7.9-8.3c-2.3-2.7-3.9-4.9-5.3-7.5c-1.4-2.7-1.8-5.8-2.2-7.8c-0.4-2,0.1-4.7,0.1-4.7s-0.4-2.1-1.5,1.2
	s0.6,11.6,4,15.6c2.5,3,2.4,3.4,11.6,12.9l0,0l0.1,0.1c0.3,0.3,0.6,0.6,1,1l0.1-0.1l0.1,0.1c9.7-11.1,9.4-11.3,11.9-14.6
	C57.1,29.1,58.4,20.7,57.2,17.4z"/>
<path d="M31.9,11.6c-0.5-0.5-1.3-0.4-1.7,0.1c-0.5,0.5-0.4,1.3,0.1,1.7c0.5,0.5,1.3,0.4,1.7-0.1
	C32.5,12.8,32.4,12.1,31.9,11.6z"/>
<path d="M37.9,4.9C37.5,4.6,37,4.6,36.6,5c-0.3,0.4-0.3,0.9,0.1,1.3c0.4,0.3,0.9,0.3,1.3-0.1
	C38.3,5.8,38.3,5.2,37.9,4.9z"/>
<path d="M45.6,5.1c-0.4-0.4-1-0.3-1.4,0.1s-0.3,1,0.1,1.4c0.4,0.4,1,0.3,1.4-0.1C46,6.1,46,5.5,45.6,5.1z"/>
<path d="M52.8,11.7c-0.4-0.4-1-0.3-1.4,0.1c-0.4,0.4-0.3,1,0.1,1.4c0.4,0.4,1,0.3,1.4-0.1
	C53.2,12.7,53.2,12.1,52.8,11.7z"/>
<path d="M41.6,36.9c0,0,3.5,2.3,4.3-1.3c0.5-2.4-4.2-2.6-4.2-2.6S38,32.6,38,35.3C37.9,38.2,41.2,37,41.6,36.9z"/>
<path d="M42,31.7c0,0,6.3,2.2,6.7-1s-6.3-2.9-6.5-2.7c-0.2,0.2-6.3-1.2-7.5,1C33.5,31.1,36.3,33.1,42,31.7z"/>
<path d="M42.1,26.3c0,0,7.1,0.7,7.8,0.1c0.7-0.5,2.7-2.4-0.8-4s-7.7,1.1-7.7,1.1s-9.3-3.8-9.9,0.2
	c-0.6,4.1,4.5,3.1,5.4,2.7C37.8,26.1,40.7,26.2,42.1,26.3z"/>
<path d="M42.1,22.1h0.4c0,0,3.4-1.1,6.5-1.3c3.2-0.2,5-2.4,4.1-4c-1-1.6-4.9-0.9-7.4,0.5s-4,2.6-4,2.6s-5.7-2.8-7.5-3.1
	c-1.8-0.4-3.8-0.5-4.5,1.4s3.5,2.4,5.7,2.3C37.6,20.3,42.1,22.1,42.1,22.1z"/>
<path d="M50.4,9.3c1-1.9,0.9-2.9,0.3-3.5c-0.9-0.7-2.6-0.7-4.3,1.2c-1.8,2-4.9,5-4.9,5s-6-5.3-7.3-5.8
	c-1.3-0.4-2-1-2.6-0.2c-0.7,0.8,0,4,1.8,5.6c0.5,0.5,5.7,6.9,8.4,6.8C44.9,18.4,49.4,11.3,50.4,9.3z"/>
</svg>
