<?xml version="1.0" standalone="no"?>
<!DOCTYPE svg PUBLIC "-//W3C//DTD SVG 20010904//EN"
 "http://www.w3.org/TR/2001/REC-SVG-20010904/DTD/svg10.dtd">
<svg version="1.0" xmlns="http://www.w3.org/2000/svg"
 width="1000.000000pt" height="1000.000000pt" viewBox="0 0 1000.000000 1000.000000"
 preserveAspectRatio="xMidYMid meet">
<metadata>
Created by potrace 1.11, written by Peter Selinger 2001-2013
</metadata>
<g transform="translate(0.000000,1000.000000) scale(0.100000,-0.100000)"
fill="#000000" stroke="none">
<path d="M0 5000 l0 -5000 5000 0 5000 0 0 5000 0 5000 -5000 0 -5000 0 0
-5000z m5046 2415 c432 -59 821 -194 1099 -380 118 -79 208 -153 323 -268 389
-385 630 -897 718 -1527 22 -157 25 -583 6 -740 -56 -449 -197 -846 -415
-1169 -98 -146 -313 -360 -460 -460 -275 -186 -571 -285 -892 -298 -458 -19
-866 131 -1268 466 -59 49 -179 155 -266 235 -260 240 -362 317 -473 355 -78
27 -166 35 -235 21 -57 -12 -143 -53 -143 -69 0 -18 14 -18 65 0 35 12 81 19
128 19 209 0 359 -121 413 -333 47 -181 -51 -374 -234 -460 -62 -30 -75 -32
-172 -32 -97 0 -110 2 -173 32 -139 66 -238 197 -273 363 -31 145 0 360 72
503 104 204 302 370 574 478 58 23 106 43 108 44 1 1 -29 25 -67 54 -131 97
-191 214 -191 370 0 141 43 241 157 362 35 36 63 72 63 78 0 6 -18 11 -43 11
-65 0 -192 35 -276 77 -55 26 -96 57 -156 117 -117 116 -183 239 -221 411 -27
120 -24 347 6 484 91 428 331 774 685 991 219 135 527 236 815 269 52 6 111
13 130 15 75 9 491 -4 596 -19z"/>
<path d="M3896 6554 c-387 -60 -757 -264 -887 -489 -125 -216 -85 -490 103
-690 112 -120 265 -182 506 -204 99 -9 132 -25 132 -65 0 -14 -43 -63 -124
-141 -153 -148 -178 -193 -184 -327 -4 -83 -3 -92 27 -152 38 -77 91 -128 180
-170 60 -28 75 -31 161 -31 87 0 101 3 165 33 133 63 206 174 209 317 1 56 -4
81 -25 125 -37 79 -103 154 -209 240 -180 145 -232 193 -277 254 -94 126 -128
248 -128 461 1 127 3 147 28 220 76 218 248 388 545 540 50 26 92 53 92 60 0
36 -150 45 -314 19z"/>
<path d="M4501 6510 c-144 -31 -221 -152 -193 -303 13 -71 66 -184 113 -241
18 -21 98 -93 178 -159 181 -149 276 -246 351 -358 112 -167 155 -328 148
-547 -4 -115 -9 -148 -30 -204 -38 -100 -85 -174 -163 -254 -118 -121 -281
-215 -490 -284 -85 -27 -135 -50 -113 -50 37 0 195 -36 264 -61 219 -77 383
-190 726 -501 281 -254 386 -331 523 -384 232 -90 593 40 830 299 158 172 262
376 317 618 20 90 23 130 22 294 0 210 -15 306 -75 487 -39 120 -142 329 -216
443 -130 199 -349 439 -545 598 -351 285 -852 518 -1273 592 -109 20 -314 28
-374 15z"/>
</g>
</svg>
